# xmcd
#
# Track frame offsets:
#	150
#	30191
#	66729
#
# Disc length: 1349 seconds
# Revision: 0
# Processed by: cddbd v1.5.2PL0 Copyright (c) Steve Scherf et al.
# Submitted via: dBpowerAMP V12.0
#
DISCID=21054303
DTITLE=Lester Levenson - Lester on Sadness
DYEAR=2006
DGENRE=Home Study
TTITLE0=Lester on Sadness pt 1
TTITLE1=Lester on Sadness pt 2
TTITLE2=Lester on Sadness pt 3
EXTD=
EXTT0=
EXTT1=
EXTT2=
PLAYORDER=
